<?xml version="1.0" encoding="utf-8"?>
<!-- Generator: Adobe Illustrator 22.1.0, SVG Export Plug-In . SVG Version: 6.00 Build 0)  -->
<svg version="1.1" id="Layer_1" xmlns="http://www.w3.org/2000/svg" xmlns:xlink="http://www.w3.org/1999/xlink" x="0px" y="0px"
	 viewBox="0 0 505.4 99.6" style="enable-background:new 0 0 505.4 99.6;" xml:space="preserve">
<style type="text/css">
	.st0{fill:#FCB233;}
	.st1{fill:#F7911E;}
	.st2{fill:#F27086;}
	.st3{fill:#E71856;}
</style>
<g>
	<path class="st0" d="M183.4,20.7c0-0.1-0.1-0.1-0.1-0.2c-1.4-3.5-4.8-5.8-8.7-5.8h0c-3.8,0-7.2,2.3-8.7,5.8c0,0.1,0,0.1-0.1,0.2
		L144.1,78c-1.6,4.1,0.5,8.8,4.7,10.4c4.1,1.6,8.8-0.5,10.4-4.7l3.5-9.1h24l3.4,9.1c1.6,4.2,6.2,6.2,10.4,4.7
		c4.2-1.6,6.3-6.2,4.7-10.4L183.4,20.7z M168.7,58.5l5.9-15.6l5.9,15.6H168.7z"/>
	<path class="st1" d="M296.2,50.6l23.1-21.3c3.3-3,3.5-8.1,0.5-11.4c-3-3.3-8.1-3.5-11.4-0.5l-17.8,16.4V22.7c0-4.4-3.6-8-8-8
		c-4.4,0-8,3.6-8,8v58.2c0,4.4,3.6,8,8,8c4.4,0,8-3.6,8-8V67.6l19.7,19c3.2,3.1,8.3,3,11.4-0.2c3.1-3.2,3-8.3-0.2-11.4L296.2,50.6z"
		/>
	<path class="st0" d="M128.4,14.6c-4.4,0-8,3.6-8,8v46.5c0,1.4-0.7,2.7-1.8,3.3c-1.9,1.1-4.5-1.1-4.9-1.5l-0.3-0.3
		c-3.1-3.2-8.2-3.3-11.4-0.3c-3.2,3.1-3.3,8.2-0.3,11.4l0.5,0.5c6.3,6.5,16,8.8,24.2,4.3c6.2-3.5,10.1-10.1,10.1-17.4V22.7
		C136.4,18.2,132.8,14.6,128.4,14.6L128.4,14.6z"/>
	<path class="st0" d="M265.8,66.5c-3.4-2.9-8.5-2.4-11.3,1c-9.8,11.6-33.2,3.4-33.2-15.7c0-16.9,19-26.8,32.8-17.4
		c3.7,2.5,8.7,1.5,11.2-2.2c2.5-3.7,1.5-8.7-2.2-11.2c-24.3-16.4-57.9,0.9-57.9,30.8c0,33.9,42.2,49.2,61.6,26
		C269.6,74.4,269.2,69.3,265.8,66.5z"/>
	<path class="st1" d="M497.4,14.6h-32.1c-4.4,0-8,3.6-8,8s3.6,8,8,8h8v50.1c0,4.4,3.6,8,8,8s8-3.6,8-8V30.7h8.1c4.4,0,8-3.6,8-8
		S501.8,14.6,497.4,14.6L497.4,14.6z"/>
	<path class="st1" d="M355.4,14.6h-16.2c-4.4,0-8,3.6-8,8v58.2c0,4.4,3.6,8,8,8s8-3.6,8-8V63.6c3,0,6.2,0,8.2,0
		c13.7,0,24.8-11,24.8-24.5C380.2,25.6,369.1,14.6,355.4,14.6L355.4,14.6z M355.4,47.5c-1.9,0-5.1,0-8.1,0c0-3.1,0-6.4,0-8.4
		c0-1.7,0-5.1,0-8.4h8.1c4.7,0,8.7,3.8,8.7,8.4C364.1,43.6,360.1,47.5,355.4,47.5z"/>
	<path class="st1" d="M421,14.6c-20.5,0-37.1,16.7-37.1,37.1s16.7,37.1,37.1,37.1s37.1-16.7,37.1-37.1
		C458.1,31.3,441.4,14.6,421,14.6z M421,72.8c-11.6,0-21-9.4-21-21c0-11.6,9.4-21,21-21c11.6,0,21,9.4,21,21
		C442,63.4,432.6,72.8,421,72.8z"/>
	<g>
		<path class="st0" d="M290.6,33.9V22.7c0-4.4-3.6-8-8-8c-4.4,0-8,3.6-8,8v58.2c0,4.4,3.6,8,8,8c4.4,0,8-3.6,8-8V67.6l19.7,19
			c3.2,3.1,8.3,3,11.4-0.2c3.1-3.2,3-8.3-0.2-11.4l-25.3-24.5C283,45.3,290.6,33.9,290.6,33.9L290.6,33.9z"/>
	</g>
	<path class="st2" d="M4.8,42.6c-2.3-2.3-1-6.2,2.2-6.7l26.6-3.9c1.3-0.2,2.4-1,3-2.2L48.5,5.8c1.4-2.9,5.6-2.9,7,0l11.9,24.1
		c0.6,1.2,1.7,2,3,2.2L97,35.9c3.2,0.5,4.5,4.4,2.2,6.7L79.9,61.4c-0.9,0.9-1.3,2.2-1.1,3.5l4.6,26.5c0.6,3.2-2.8,5.7-5.7,4.1
		L53.8,83.1c-1.1-0.6-2.5-0.6-3.7,0L26.3,95.6c-2.9,1.5-6.3-0.9-5.7-4.1l4.6-26.5c0.2-1.3-0.2-2.6-1.1-3.5L4.8,42.6z"/>
	<path class="st3" d="M83.4,91.4l-4.6-26.5c0-0.1,0-0.2,0-0.2c-2.4-0.5-3.2-2.7-3.2-2.7c-34.4,6.8-37.9-27.8-37.9-27.8
		c-2.2-0.2-3.4-1.1-3.9-2.1c0,0-0.1,0-0.1,0L6.9,35.9c-3.2,0.5-4.5,4.4-2.2,6.7L24,61.4c0.9,0.9,1.3,2.2,1.1,3.5l-4.6,26.5
		c-0.6,3.2,2.8,5.7,5.7,4.1l23.8-12.5c1.1-0.6,2.5-0.6,3.7,0l23.8,12.5C80.5,97.1,83.9,94.7,83.4,91.4z"/>
	<path class="st0" d="M76,98.8L52.2,86.2c-0.1-0.1-0.2-0.1-0.3,0L28,98.8c-5.5,2.9-11.9-1.8-10.9-7.9l4.6-26.5c0-0.1,0-0.2-0.1-0.3
		L2.3,45.2l0,0c-4.5-4.3-2-11.9,4.2-12.8l26.6-3.9c0.1,0,0.2-0.1,0.3-0.2L45.3,4.2C48-1.4,56-1.4,58.7,4.2l11.9,24.1
		c0.1,0.1,0.2,0.2,0.3,0.2l26.6,3.9c6.2,0.9,8.6,8.5,4.2,12.8L82.4,64c-0.1,0.1-0.1,0.2-0.1,0.3l4.6,26.5
		C87.9,97,81.5,101.6,76,98.8L76,98.8z M52,79c1.2,0,2.4,0.3,3.5,0.9l23.8,12.5c0.1,0,0.2,0.1,0.4,0c0.2-0.1,0.2-0.3,0.1-0.3
		l-4.6-26.5c-0.4-2.4,0.4-4.9,2.2-6.6l19.3-18.8c0.1-0.1,0.2-0.2,0.1-0.4c-0.1-0.2-0.2-0.2-0.3-0.2l-26.6-3.9
		c-2.4-0.4-4.6-1.9-5.7-4.1L52.3,7.3c0-0.1-0.1-0.2-0.3-0.2s-0.3,0.1-0.3,0.2L39.8,31.5c-1.1,2.2-3.2,3.8-5.7,4.1L7.5,39.5
		c-0.3,0-0.4,0.4-0.2,0.6l0,0l19.3,18.8c1.8,1.7,2.6,4.2,2.2,6.6l-4.6,26.5c0,0.1,0,0.2,0.1,0.3c0.2,0.1,0.3,0.1,0.4,0l23.8-12.5
		C49.6,79.3,50.8,79,52,79L52,79z"/>
</g>
</svg>
