<svg aria-hidden="true" style="position: absolute; width: 0; height: 0; overflow: hidden;" version="1.1" xmlns="http://www.w3.org/2000/svg" xmlns:xlink="http://www.w3.org/1999/xlink">
<defs>
<symbol id="burger-icon" viewBox="0 0 32 32">
<path d="M6.4 11.733v-2.133h19.2v2.133h-19.2zM6.4 17.067h19.2v-2.133h-19.2v2.133zM6.4 22.4h19.2v-2.133h-19.2v2.133z"></path>
</symbol>

<symbol id="search-button" viewBox="0 0 512 512">
<path stroke-width="3" d="M500.3 443.7l-119.7-119.7c27.22-40.41 40.65-90.9 33.46-144.7C401.8 87.79 326.8 13.32 235.2 1.723C99.01-15.51-15.51 99.01 1.724 235.2c11.6 91.64 86.08 166.7 177.6 178.9c53.8 7.189 104.3-6.236 144.7-33.46l119.7 119.7c15.62 15.62 40.95 15.62 56.57 0C515.9 484.7 515.9 459.3 500.3 443.7zM79.1 208c0-70.58 57.42-128 128-128s128 57.42 128 128c0 70.58-57.42 128-128 128S79.1 278.6 79.1 208z"></path>
</symbol>

<symbol id="say-button" viewBox="0 0 512 512">
<path  d="M256 32C114.6 32 .0272 125.1 .0272 240c0 49.63 21.35 94.98 56.97 130.7c-12.5 50.37-54.27 95.27-54.77 95.77c-2.25 2.25-2.875 5.734-1.5 8.734C1.979 478.2 4.75 480 8 480c66.25 0 115.1-31.76 140.6-51.39C181.2 440.9 217.6 448 256 448c141.4 0 255.1-93.13 255.1-208S397.4 32 256 32z"></path>
</symbol>

<symbol id="house" viewBox="0 0 576 512">
<path fill="currentColor" d="M575.8 255.5C575.8 273.5 560.8 287.6 543.8 287.6H511.8L512.5 447.7C512.5 450.5 512.3 453.1 512 455.8V472C512 494.1 494.1 512 472 512H456C454.9 512 453.8 511.1 452.7 511.9C451.3 511.1 449.9 512 448.5 512H392C369.9 512 352 494.1 352 472V384C352 366.3 337.7 352 320 352H256C238.3 352 224 366.3 224 384V472C224 494.1 206.1 512 184 512H128.1C126.6 512 125.1 511.9 123.6 511.8C122.4 511.9 121.2 512 120 512H104C81.91 512 64 494.1 64 472V360C64 359.1 64.03 358.1 64.09 357.2V287.6H32.05C14.02 287.6 0 273.5 0 255.5C0 246.5 3.004 238.5 10.01 231.5L266.4 8.016C273.4 1.002 281.4 0 288.4 0C295.4 0 303.4 2.004 309.5 7.014L564.8 231.5C572.8 238.5 576.9 246.5 575.8 255.5L575.8 255.5z"></path>
</symbol>

<symbol id="arrow-slider" viewBox="0 0 448 512">
<path class="" fill="currentColor" d="M416 352c-8.188 0-16.38-3.125-22.62-9.375L224 173.3l-169.4 169.4c-12.5 12.5-32.75 12.5-45.25 0s-12.5-32.75 0-45.25l192-192c12.5-12.5 32.75-12.5 45.25 0l192 192c12.5 12.5 12.5 32.75 0 45.25C432.4 348.9 424.2 352 416 352z"></path>
</symbol>

<symbol id="clock" viewBox="0 0 20 20">
<path d="M10 0.5C4.76166 0.5 0.5 4.76166 0.5 10C0.5 15.2383 4.76166 19.5 10 19.5C15.2383 19.5 19.5 15.2383 19.5 10C19.5 4.76166 15.2383 0.5 10 0.5ZM10 18C5.8088 18 2 14.1911 2 10C2 5.80888 5.80888 2 10 2C14.1911 2 18 5.80903 18 10C18 14.191 14.1911 18 10 18Z" fill="var(--cta-action-color)"></path>
<path d="M10.9495 4.48723H9.05053V10.3948L13.0281 14.3512L14.3674 13.0046L10.9496 9.60541L10.9495 4.48723Z" fill="var(--cta-action-color)"></path>
</symbol>

<symbol id="logo-big" viewBox="62.653 2.162 194.03 83.514" >
<path fill="#6e6e6e" d="M168.491 30.794a2.572 2.572 0 00-2.927-.498l-2.742-2.73a3.499 3.499 0 00-.008-3.711l2.727-2.738a2.577 2.577 0 003.021-.463 2.574 2.574 0 10-4.067-.551l-2.696 2.708a3.5 3.5 0 00-3.805-.053l-2.702-2.692a2.574 2.574 0 10-1.072 1.145l2.668 2.657a3.498 3.498 0 00.069 3.803l-2.691 2.703a2.574 2.574 0 101.018 1.04l2.721-2.731a3.499 3.499 0 003.711-.007l2.707 2.696a2.574 2.574 0 104.068-.578z"></path>

<g fill="#707070"><path d="M141.812 30.621l-.171-.642-4.852 1.296.172.642a23.426 23.426 0 002.371 5.716l.332.573 4.344-2.517-.333-.574a18.284 18.284 0 01-1.863-4.494zM149.145 41.076l-.543-.383-2.888 4.106.542.382a23.64 23.64 0 005.485 2.866l.625.229 1.714-4.724-.624-.226a18.32 18.32 0 01-4.311-2.25zM147.846 11.487a18.5 18.5 0 014.102-2.624l.601-.282-2.127-4.548-.601.281a23.61 23.61 0 00-5.209 3.333l-.508.428 3.234 3.84.508-.428zM141.46 22.541a18.48 18.48 0 011.457-4.642l.28-.602-4.547-2.124-.281.602a23.424 23.424 0 00-1.855 5.904l-.113.653 4.945.861.114-.652zM176.023 35.1a18.816 18.816 0 01-2.972 3.866l-.47.47 3.557 3.544.469-.469a23.807 23.807 0 003.762-4.898l.332-.575-4.346-2.512-.332.574zM183.167 21.654l-.115-.652-4.943.863.114.653a19.05 19.05 0 01.216 4.879l-.058.662 5.004.424.057-.66a24.086 24.086 0 00-.275-6.169zM175.129 15.067l.383.544 4.104-2.891-.382-.542a23.683 23.683 0 00-2.645-3.14 23.19 23.19 0 00-1.535-1.407l-.508-.425-3.227 3.843.51.426c.417.35.824.723 1.209 1.112.776.774 1.48 1.609 2.091 2.48zM166.252 43.32a18.876 18.876 0 01-4.757 1.053l-.659.059.434 5.001.662-.058a23.621 23.621 0 006.035-1.335l.623-.228-1.714-4.72-.624.228zM165.309 7.916l1.295-4.82-.643-.171c-1.905-.506-3.963-.763-6.127-.763h-.666l.015 4.99h.661c1.719 0 3.342.2 4.825.594l.64.17z"></path></g>

<g><path fill="#626262" d="M78.01 82.93c-1.842 1.842-4.03 2.641-6.393 2.641-4.899 0-8.964-3.162-8.964-8.895s3.996-8.895 8.964-8.895c2.327 0 4.412.799 6.219 2.571l-1.807 1.876c-1.216-1.182-2.814-1.736-4.343-1.736-3.405 0-6.15 2.327-6.15 6.184 0 3.996 2.78 6.185 6.115 6.185 1.633 0 3.267-.556 4.482-1.807l1.911 1.911-.034-.035zM95.384 85.328l-.069-3.127c-1.355 2.362-3.961 3.475-6.323 3.475-4.934 0-8.791-3.405-8.791-8.999 0-5.559 3.927-8.895 8.825-8.859 2.571 0 5.107 1.182 6.358 3.404l.035-3.127h2.779v17.164h-2.745l-.069.069zM89.13 70.527c-3.405 0-6.149 2.433-6.149 6.254s2.744 6.288 6.149 6.288c8.27 0 8.27-12.576.035-12.576l-.035.034zM114.426 71.917c-1.494-1.355-3.058-1.668-4.83-1.668-2.362-.035-4.273.799-4.238 2.502.034 1.771 2.119 2.293 4.273 2.536 3.127.382 7.296 1.008 7.227 5.247-.069 3.439-3.335 5.142-7.192 5.142-2.884 0-5.732-.8-7.678-3.231l1.633-1.98c1.528 1.877 3.995 2.641 6.115 2.641 1.876 0 4.273-.59 4.343-2.676.034-1.875-1.98-2.432-4.621-2.744-3.301-.417-6.845-1.285-6.845-4.934-.035-3.648 3.648-5.072 6.949-5.038 2.57 0 4.69.626 6.531 2.293l-1.633 1.876-.034.034zM124.087 62.884c0 2.467-3.753 2.467-3.753-.035 0-2.467 3.753-2.467 3.753.035zm-3.336 22.375h2.85V68.025h-2.85v17.234zM128.812 68.06h2.606l.139 2.745c1.494-2.051 3.579-2.988 5.872-2.988 4.343 0 7.539 2.918 7.539 7.956v9.485h-2.849v-9.45c0-3.301-1.946-5.351-5.212-5.351-3.127.035-5.281 2.502-5.281 5.594v9.207h-2.814V68.06zM157.722 67.713c5.246 0 8.929 3.683 8.929 8.999 0 5.211-3.752 8.859-8.929 8.859-5.143 0-8.895-3.648-8.895-8.859 0-5.317 3.787-8.999 8.895-8.999zm.034 2.606c-3.509 0-6.08 2.57-6.08 6.393 0 3.613 2.536 6.184 6.046 6.184 3.544 0 6.08-2.57 6.115-6.184 0-3.823-2.641-6.393-6.081-6.393z"></path>

<path fill="#767676" d="M174.365 78.309c.244 1.668 1.842 3.023 4.656 3.023 1.354 0 3.231-.313 4.447-1.355l2.814 3.127c-1.842 1.807-4.795 2.537-7.366 2.537-6.219 0-9.624-3.648-9.624-9.139 0-5.211 3.509-8.859 9.104-8.859 5.837 0 9.658 3.648 8.581 10.666h-12.612zm8.131-3.648c-.104-1.875-2.016-2.744-4.1-2.744-2.016 0-3.544 1.043-4.031 2.744h8.131zM200.148 68.13h5.977v.174l-5.455 8.338 5.768 8.514v.104h-5.977l-3.161-5.143-3.127 5.143h-6.011v-.104l5.802-8.514-5.489-8.338v-.174h5.976l2.85 5.107 2.847-5.107zM215.646 63.405v4.794h4.343v4.169h-4.378v6.463c0 1.807 1.008 2.293 1.945 2.293.591 0 1.529-.139 2.085-.416l1.146 4.168c-1.251.486-2.258.695-3.613.766-3.718.173-6.532-1.46-6.532-6.811v-6.463h-3.058v-4.169h3.058V63.96l5.004-.555zM228.052 68.13l.382 1.876c1.146-1.599 2.676-2.293 4.586-2.293 1.634 0 2.988.486 4.204 1.563l-2.084 3.961c-.834-.591-1.703-.869-2.745-.869-2.154 0-3.995 1.391-3.995 3.961v8.93h-5.004V68.13h4.656zM251.992 68.094h4.69v17.164h-4.517l-.278-2.154c-1.146 1.807-3.613 2.502-5.281 2.537-5.142.034-8.859-3.301-8.859-8.965 0-5.697 3.926-9.033 8.999-8.964 2.154 0 4.169.834 5.072 2.362l.174-1.98zm-9.242 8.583c0 2.85 2.016 4.518 4.517 4.518 2.814 0 4.552-2.189 4.552-4.344 0-2.467-1.563-4.725-4.552-4.725-2.501 0-4.517 1.702-4.517 4.551z"></path></g>
</symbol>

<symbol id="visa" viewBox="0 0 149.277 119.311">
<g fill="#707070">
<path d="M71.93.654H61.44l-6.565 38.397h10.533zM93.187 16.19c-3.673-1.752-5.89-2.934-5.89-4.77 0-1.626 1.922-3.314 5.953-3.314 3.462-.064 5.89.675 7.79 1.456l.95.444 1.33-8.38C101.25.822 98.02 0 93.904 0 83.519 0 76.258 5.214 76.258 12.644c-.064 5.51 5.214 8.591 9.203 10.449 4.053 1.92 5.446 3.082 5.446 4.77 0 2.576-3.25 3.758-6.248 3.758-4.2 0-6.396-.57-9.837-1.984l-1.33-.57-1.456 8.591c2.428 1.119 6.987 1.984 11.694 2.069 11.02 0 18.154-5.15 18.238-13.088.043-4.37-2.744-7.747-8.78-10.449zM130.17.654h-8.085c-2.512 0-4.39.676-5.51 3.146L101.04 38.946h10.955s1.752-4.708 2.195-5.742h13.383c.296 1.33 1.246 5.742 1.246 5.742h9.71zm-12.94 24.803c.887-2.195 4.2-10.723 4.2-10.723-.063.063.887-2.195 1.394-3.673l.739 3.314s1.984 9.204 2.427 11.103h-8.76zM46.136.654L35.919 26.83 34.8 21.531c-1.92-6.185-7.873-12.792-14.48-16.106l9.33 33.605h11.103L57.218.654z"></path></g>
<path fill="#707070" d="M26.441.654H9.533l-.148.803c13.15 3.145 21.848 10.807 25.436 20.074L31.148 3.884c-.675-2.406-2.512-3.145-4.707-3.23"></path>
<path d="M72.062 90.658c.189.164.389.322.585.484a24.08 24.08 0 01-13.396 4.045c-13.364 0-24.198-10.835-24.198-24.198 0-13.364 10.834-24.198 24.198-24.198 4.954 0 9.56 1.49 13.396 4.044-.196.161-.395.32-.585.484a26.07 26.07 0 00-8.97 19.67c0 7.541 3.27 14.71 8.97 19.669zm17.1-43.867c-4.954 0-9.56 1.49-13.396 4.044.196.161.394.32.585.485a26.067 26.067 0 018.97 19.669c0 7.54-3.27 14.709-8.97 19.669-.19.164-.389.322-.586.484a24.082 24.082 0 0013.396 4.044c13.364 0 24.198-10.833 24.198-24.197 0-13.364-10.834-24.198-24.198-24.198zm-14.956 5.182c-.312.246-.617.498-.915.758-5.1 4.437-8.327 10.968-8.327 18.258 0 7.289 3.228 13.82 8.327 18.258.298.26.603.512.915.757.312-.245.617-.497.916-.757 5.099-4.438 8.327-10.97 8.327-18.258 0-7.29-3.228-13.821-8.327-18.257-.299-.26-.604-.513-.916-.759M21.582 118.97v-8.542c0-3.217-2.05-5.38-5.353-5.41-1.737-.028-3.53.512-4.783 2.42-.94-1.509-2.42-2.42-4.499-2.42-1.452 0-2.876.427-3.986 2.022v-1.68H0v13.61h2.99v-7.545c0-2.363 1.31-3.616 3.33-3.616 1.965 0 2.962 1.281 2.962 3.587v7.574h2.989v-7.545c0-2.363 1.367-3.616 3.33-3.616 2.023 0 2.99 1.281 2.99 3.587v7.574h2.99zm44.245-13.61h-4.841v-4.128h-2.99v4.128h-2.761v2.705h2.762v6.206c0 3.161 1.224 5.04 4.726 5.04 1.281 0 2.76-.399 3.7-1.054l-.853-2.534c-.883.512-1.851.77-2.62.77-1.48 0-1.964-.912-1.964-2.279v-6.15h4.84zm25.255-.342c-1.71 0-2.82.798-3.588 1.993v-1.651h-2.933v13.61h2.96v-7.631c0-2.25.969-3.502 2.905-3.502.598 0 1.225.085 1.851.341l.91-2.79c-.654-.256-1.508-.37-2.105-.37zM52.9 106.442c-1.423-.94-3.387-1.424-5.551-1.424-3.446 0-5.666 1.652-5.666 4.356 0 2.221 1.65 3.588 4.698 4.015l1.394.2c1.623.227 2.393.654 2.393 1.423 0 1.054-1.083 1.651-3.105 1.651-2.049 0-3.53-.654-4.526-1.422l-1.396 2.305c1.623 1.196 3.673 1.765 5.894 1.765 3.93 0 6.207-1.85 6.207-4.441 0-2.392-1.793-3.644-4.755-4.072l-1.395-.2c-1.28-.17-2.306-.426-2.306-1.337 0-.997.968-1.595 2.59-1.595 1.738 0 3.418.655 4.243 1.168zm79.323-1.424c-1.709 0-2.82.798-3.588 1.993v-1.651h-2.933v13.61h2.961v-7.631c0-2.25.968-3.502 2.904-3.502.599 0 1.225.085 1.851.341l.912-2.79c-.655-.256-1.51-.37-2.107-.37zm-38.153 7.147c0 4.128 2.876 7.146 7.261 7.146 2.05 0 3.417-.456 4.896-1.623l-1.423-2.392c-1.11.798-2.277 1.224-3.559 1.224-2.363-.028-4.1-1.736-4.1-4.356s1.737-4.327 4.1-4.356c1.282 0 2.449.427 3.559 1.225l1.423-2.392c-1.48-1.168-2.847-1.623-4.896-1.623-4.385 0-7.26 3.018-7.26 7.147zm27.732 0v-6.805h-2.961v1.651c-.94-1.224-2.362-1.993-4.3-1.993-3.815 0-6.804 2.99-6.804 7.147s2.989 7.146 6.805 7.146c1.936 0 3.36-.769 4.299-1.993v1.652h2.961zm-11.018 0c0-2.392 1.565-4.356 4.128-4.356 2.448 0 4.1 1.878 4.1 4.356 0 2.476-1.652 4.356-4.1 4.356-2.563 0-4.128-1.965-4.128-4.356zm-35.732-7.147c-3.986 0-6.776 2.904-6.776 7.147 0 4.328 2.903 7.146 6.975 7.146 2.05 0 3.929-.512 5.58-1.907l-1.451-2.193c-1.14.912-2.592 1.424-3.959 1.424-1.907 0-3.643-.883-4.07-3.331h10.107c.029-.37.057-.74.057-1.139-.028-4.243-2.648-7.147-6.463-7.147zm-.057 2.648c1.907 0 3.132 1.196 3.445 3.303h-7.06c.312-1.965 1.508-3.303 3.615-3.303zm74.282 4.499V99.893h-2.96v7.118c-.94-1.224-2.364-1.993-4.3-1.993-3.816 0-6.805 2.99-6.805 7.147s2.99 7.146 6.805 7.146c1.935 0 3.36-.769 4.3-1.993v1.652h2.96zm-11.018 0c0-2.392 1.566-4.356 4.128-4.356 2.448 0 4.1 1.879 4.1 4.356s-1.652 4.356-4.1 4.356c-2.562 0-4.128-1.965-4.128-4.356zm-99.993 0v-6.805h-2.961v1.651c-.94-1.224-2.362-1.993-4.3-1.993-3.815 0-6.804 2.99-6.804 7.147s2.99 7.146 6.805 7.146c1.936 0 3.36-.769 4.299-1.993v1.652h2.961zm-11.018 0c0-2.392 1.565-4.356 4.128-4.356 2.449 0 4.1 1.879 4.1 4.356s-1.651 4.356-4.1 4.356c-2.563 0-4.128-1.965-4.128-4.356z"></path>
</symbol>

<symbol id="neteller" viewBox="16.6 511.9 595.3 118">
<path d="M541.8 563c-3.2 2.2-7.7 3.2-14.2 3.2h-6.2l4.7-25.9h4.7c5.2 0 9 .7 11.7 2.5 2 1.2 4.5 4 4.5 9 0 6.2-2.8 9.7-5.2 11.2m-373.1 32.7h-48.4l3.2-17H154l3.5-19.2h-30.2l3-16.7h48.4l-10 52.9zm399.2-67.3c-7.2-5-18-7.2-31.9-7.2h-37.2l-13.7 74.6h-48.4l3-17h29.2l3.5-19h-29.2l3.2-17h30.2l4-21.9h-61.3l-13 70.8h-22.4l13.2-70.8h-31.9l-13 70.8h-21.9l13.2-70.8h-31.9l-13.7 74.6H249l3-17h29.4l3.5-19h-29.2l3-17h30.4l4-21.9H102.8l-10.7 59.1-21.7-59.1H37.3l-17.7 96.5h31.7L62 556.3l20.9 60.8h113.5l13.7-74.6h17.7l-13.7 74.6h298l8.7-47.1 14 47.1h31.7L552 578.7l3.2-.7c7.2-1.5 13-5 17-10s6-11.7 6-19.5c0-8.7-3.5-15.4-10.3-20.1M593.9 606.2l4.2-.2c1 0 1.7-.2 2.2-.5.5-.2 1-.5 1.2-1 .2-.5.2-1 .2-1.5 0-.7-.2-1.2-.7-1.7s-1.5-.5-2.5-.5l-4.7.2v5.2zm-1.5 8.5l-.7-15.2 6.7-.2c1.2 0 2.5 0 3 .2.7.2 1.2.7 1.7 1.2.5.7.7 1.5.7 2.2 0 1-.2 2-1 2.7s-1.7 1.2-3.2 1.5c.5.2 1 .5 1.2.7.5.5 1.2 1.2 1.7 2l2.7 4-2.5.2-2.2-3c-.7-1-1.2-1.5-1.5-2l-1-1c-.3-.3-.7-.2-1-.2H593.6l.2 6.7h-1.4z"></path>
<path d="M585.9 607.4c-.2-3.2 1-6.2 3-8.5 2-2.2 5-3.7 8.2-4 6.5-.2 12 4.7 12.5 11.2v.5c0 6.2-5 11.5-11.2 11.7-6.8.6-12.3-4.4-12.5-10.9m11-14.9c-3.7.2-7.2 1.7-9.7 4.7-2.5 2.7-3.7 6.5-3.7 10.2.5 7.7 7 13.7 15 13.5 7.7-.5 14-7 13.5-15-.7-7.7-7.4-13.7-15.1-13.4"></path></g>
</symbol>

<symbol id="skrill" viewBox="97.5 325.5 417.2 142.4" >
 <path fill="#707070" d="M429.2 339.5l34.8-6.3v133.2h-34.8V339.5zm50.7 0v127.1h34.8V333.3l-34.8 6.2zM379.7 466.6h34.8v-97.5h-34.8v97.5zm-229.4-83.7c-4.4-.4-14.5-.9-14.5-10.1 0-11 14.7-11 20.1-11 9.6 0 22.1 2.8 31.1 5.5 0 0 5 1.8 9.2 3.5l.4.2v-30.4l-.6-.2c-10.5-3.7-22.8-7.2-45.4-7.2-39.2 0-53 22.8-53 42.3 0 11.2 4.8 37.7 49.7 40.8 3.9.2 13.8.7 13.8 10.3 0 7.7-8.3 12.3-22.1 12.3-15.3 0-30-3.9-39-7.5v31.1c13.4 3.5 28.5 5.3 46.4 5.3 38.3 0 55.4-21.5 55.4-43-.2-24-19.3-39.8-51.5-41.9zm209.9-15.2c-32 1.1-48.4 15.5-48.4 44v54.8h35v-44.7c0-17.1 2.2-24.5 22.6-25.2v-28.3c-3.5-.8-9.2-.6-9.2-.6zM266 369c-.7 2-6.3 17.7-19.9 33.8v-69.5l-35.9 7.2v126.2h35.9v-39c10.3 15.6 15.5 39 15.5 39h42.9c-4.2-17.7-22.8-50.2-22.8-50.2 16.7-21.2 23.9-43.6 25.2-47.5H266zm131.1-9.2c9.4 0 17.1-7.7 17.1-17.1 0-9.4-7.7-17.1-17.1-17.1s-17.1 7.7-17.1 17.1c0 9.3 7.6 17.1 17.1 17.1z"></path>
</symbol>

<symbol id="paysafecard" viewBox="0 0 915 155">
<path fill-rule="evenodd" class="s0" d="M119 65.2q.2-10.5 4.7-15.9 2.4-2.3 6-3.8 3.7-1.7 7.2-1.7h28.5q18.8.2 19.1 20.6v41.9q-.2 7.3-5.7 12.6-5.4 5.5-13 5.7h-26.9v30.2H119zm45.6 4q-.2-4.8-4.5-4.9h-15.5q-5.5.3-5.7 6v27.8q.2 5.9 6.3 6h14.2q2.2.1 3.7-1.6 1.5-1.3 1.5-3.3zM246.2 68.7q.2-4.6-5.3-4.5h-40.1V43.8h45.1q19.7.3 20 19.1v42.7q-.1 8.1-4.9 13.5-5.1 5.5-13 5.5h-27.3q-19.9-.2-20.2-18.2V89.9q.1-18.9 19.2-19.2h26.5zm-25.8 31.4q0 1.7 1.6 2.8c.9.8 2.1 1.2 3.6 1.2h15.3q5.1 0 5.3-4v-5.7q0-4.7-5.5-4.7h-15.1q-3 0-4.2 1-1 1.1-1 4.3z"></path><path class="s0" d="M321.8 134.4q2.4-.2 4.1-1.7 1.6-1.4 1.6-3.3v-4.8H302q-5 0-8-1.3c-2.1-.8-4.2-2.2-6.3-4.2q-2.9-3.3-4.2-6.8-1.4-3.2-1.4-8.2V43.8H302v53.9q0 6.4 5.3 6.4h14.1q2.5 0 4.3-1.6 1.8-1.5 1.8-3.4V43.8h19.7v89q-.2 9.9-5.1 15.9-4.9 6-13.6 6.1h-46.4v-20.4zM362.8 104.1h35.4q4.9-.1 5.1-3.9v-1.8q0-.8-.5-1.8-1.2-2.3-2.9-2.3h-17.6c-5.2-.1-9.7-1.9-13.4-5.3q-5.7-4.9-5.8-11.8V62q.3-17.9 19.4-18.2h41.1v20.4h-34.9q-6.1 0-6.1 3.8v2q0 3.9 6.3 3.9h17.5q7 .1 12 5.3 5 5.3 5.2 12.6v14.9q-.2 6.3-5.8 12.5-2.7 3.1-5.5 4.3-2.9 1.1-7.9 1.1h-41.6z"></path><path fill-rule="evenodd" class="s0" d="M483.5 68.7q.1-4.6-5.4-4.5H438V43.8h45.1q19.7.3 20.1 19.1v42.7q-.2 8.1-5 13.5-5 5.5-13 5.5h-27.3q-19.9-.2-20.2-18.2V89.9q.2-18.9 19.3-19.2h26.5zm-25.9 31.4q0 1.7 1.6 2.8 1.4 1.2 3.6 1.2h15.3q5.2 0 5.4-4v-5.7q-.1-4.7-5.6-4.7h-15.1q-3 0-4.1 1-1.1 1.1-1.1 4.3z"></path><path class="s0" d="M519.3 32.2q.2-8.3 6.2-13.3 5.8-5 15.2-5.2h12.6v19.8h-7.6q-6.3.1-6.5 6v4.3h14.1v20.5h-14.1v60.3h-19.9z"></path><path fill-rule="evenodd" class="s0" d="M585.3 97.2v1.2q0 2.5 1.3 3.9c.6 1.2 1.4 1.8 2.5 1.8H630v20.5h-43.4q-6 0-9.3-1.1-3.6-1.2-6.4-3.9-3.3-3.2-4.4-6.6-1.2-3.6-1.2-9.4l-.2-40.9q.3-18.6 19.4-18.9h26.8q18.5.3 18.8 19.6v16.1zM610 68.3v-.4c0-1.1-.5-2-1.3-2.7q-1.4-.9-3.4-.9h-13.9q-2.6 0-4.3 1.5-2.1 1.4-2.1 3.7v8.2z"></path><path class="s0" d="M672.2 124.6q-4.5 0-8.2-.8c-2.6-.4-5.2-1.7-7.9-3.7q-4.1-3.6-5.6-8-1.7-4.3-1.7-9.9V64.1q-.1-4.7 1-8.2 1-3.5 4.2-6.9c2.4-2.4 4.9-4 7.5-4.8q3.7-.9 8.5-.9h30.5v4.8h-29.8q-7.9 0-12.4 3.2c-3.1 2.4-4.7 6.4-4.7 12.2v38.1q0 4 1.2 7.8 1.3 3.7 4.2 6.6 3.3 2.4 6.5 3.1 3.3.7 7 .7h28.4v4.8z"></path><path fill-rule="evenodd" class="s0" d="M783.6 102.6c0 3-.2 5.7-.6 8.1q-1 3.9-4 7.4-6.2 6.6-15.5 6.5h-23.8q-9.2 0-15-5.5-6-5.5-6-15.2V91.6q.3-20.8 20.7-21.3H779v-5.4q0-6.6-3.8-11.6-2.5-3.3-5.7-4.4-3.3-.8-7.5-.8h-43.2v-4.8h41q5.6 0 10.2.8 2.3.4 4.3 1.8 2.1 1.2 3.9 3.7 5.5 7.1 5.4 16.3zm-4.7-27.5h-40q-7.2.2-11.2 4.5-4.2 4.3-4.2 11.9v12.2q0 3.5.7 6.4.8 3.1 3.8 5.5 5.2 4.2 11.4 4.2h24.3c10.1-.1 15.2-5.4 15.2-16z"></path><path class="s0" d="M828.3 48.1q-16.6.3-16.3 18.1v58.4h-4.8V66.2q-.3-22.9 21.9-22.9h5.3v4.8z"></path><path fill-rule="evenodd" class="s0" d="M913.6 102q-.6 23.1-24.4 22.6h-17.7q-5.6 0-10-.9-4.6-1.2-8.8-5.6c-2.1-2.6-3.4-5.2-4-7.9q-1.1-4-.9-8.9V66.6q.3-23.5 23.7-23.3h37.3V16.9h4.8zm-4.8-53.9h-37.6q-4.1 0-7.4.9c-2.3.5-4.5 1.9-6.6 4.2q-2.9 3.1-3.7 6.1-1.1 3.1-.9 7.5V104q0 9.3 5.4 12.6c1.8 1.1 3.8 1.9 6 2.4q3.3.9 7.3.9h16.5q9.2 0 15-4.3c3.9-2.7 5.9-7.3 6-13.9z"></path><path class="s0" d="M2.2 44.7q-.1-3 .1-5.8C3.2 17.3 20.9 0 42.7 0c21.2 0 38.6 16.3 40.4 37q.5 3.6.3 7.5c-2.9-2.7-6.6-4.5-11-5.3-2.9-13.7-15-24-29.6-24-14.6 0-26.7 10.3-29.6 24q-2.3.5-4.7 1.5c-2.4 1.1-4.5 2.5-6.3 4z"></path><path class="s0" d="M85.6 64.4V104q-.3 20.4-19.1 20.6H17.9q-3.5 0-7.3-1.7c-2.4-1-4.4-2.3-5.9-3.8Q.2 113.6 0 103.2v-38q.2-10.5 4.7-15.9Q7 47 10.6 45.5q3.8-1.7 7.3-1.7h48.6q18.8.2 19.1 20.6z"></path>
</symbol>

<symbol id="mifinity" viewBox="0 0 248.106 31.985">
<path d="M235.372 29.194c.182-.074.48-.074.662 0 .182.073.033.133-.331.133s-.513-.06-.33-.133zm-85.271-13.98c0-7.131.034-10.01.075-6.398.042 3.611.042 9.446 0 12.964-.042 3.52-.076.564-.075-6.566zm6.614 0c0-6.985.034-9.805.076-6.266.042 3.539.042 9.254 0 12.7-.042 3.446-.076.55-.076-6.434zm4.498-.133c0-7.058.034-9.945.076-6.416a658.16 658.16 0 010 12.832c-.042 3.53-.076.642-.076-6.416zm44.977 2.646c0-5.602.035-7.894.078-5.093s.043 7.385 0 10.186c-.043 2.802-.078.51-.078-5.093zm6.614 0c0-5.602.036-7.894.078-5.093.043 2.801.043 7.385 0 10.186-.042 2.802-.078.51-.078-5.093zm-45.045 3.374c-.03-3.602.035-6.55.145-6.55.109 0 .167 1.935.13 4.3-.128 8.052-.22 8.809-.275 2.25zm64.616 1.256c0-2.91.038-4.137.085-2.726a98.587 98.587 0 01.001 5.292c-.047 1.5-.086.345-.086-2.566zm-87.118-7.276c0-.364.06-.512.134-.33.073.181.073.48 0 .661-.074.182-.134.033-.134-.33zm-25.503-6.806c.476-.059 1.19-.058 1.588.003.397.06.008.108-.865.107-.873-.002-1.198-.051-.723-.11zm4.097-3.38c.003-.582.057-.79.12-.46.064.329.061.805-.005 1.058s-.118-.016-.115-.598zm22.749-.662c0-.509.054-.717.12-.463.067.255.067.672 0 .926-.066.255-.12.047-.12-.463zm79-3.09c.19-.077.418-.068.506.02.088.088-.068.15-.347.139-.308-.013-.37-.075-.16-.16zm2.38 0c.191-.077.42-.068.508.02.087.088-.069.15-.348.139-.308-.013-.37-.075-.16-.16zm17.463 0c.191-.077.42-.068.507.02.088.088-.068.15-.347.139-.308-.013-.371-.075-.16-.16z" fill="#d0d0d0"></path><path d="M134.226 22.953l.01-4.829 4.762-.01 4.762-.01-4.69.082-4.69.082-.082 4.757-.081 4.757.009-4.83zM84.22 14.817c0-7.058.034-9.945.076-6.416a658.16 658.16 0 010 12.832c-.042 3.529-.076.641-.076-6.416zm154.77 7.673c0-2.838.039-3.999.086-2.58.048 1.419.048 3.74 0 5.16-.047 1.418-.086.257-.086-2.58zM1.303 21.806c.013-.308.075-.37.16-.16.076.191.067.42-.021.507-.088.088-.15-.068-.139-.347zm55.492-.026c.191-.077.42-.067.507.02.088.088-.068.151-.347.14-.308-.013-.371-.076-.16-.16zM1.324 20.638c0-.364.06-.513.133-.331.074.182.074.48 0 .661-.073.182-.133.033-.133-.33zm45.697-3.639c-.329-.42-.32-.429.1-.1.44.346.581.563.363.563-.055 0-.263-.208-.463-.463zm130.06-7.739c0-3.71.037-5.228.082-3.373.046 1.855.046 4.891 0 6.747-.045 1.855-.083.337-.083-3.374zM70.14 11.51c.003-.583.057-.79.12-.46.063.329.06.805-.005 1.058-.066.253-.118-.017-.115-.599zm64.074.307c-.075-.195-.1-1.296-.058-2.448l.078-2.093 5.358-.008 5.358-.009-5.291.08-5.292.08v4.475l4.696.079 4.696.079-4.704.06c-3.728.047-4.733-.015-4.84-.295zm64-7.451c.001-.873.05-1.199.109-.723.059.475.058 1.19-.003 1.587-.06.398-.109.009-.107-.864zm-159.66.727c-.33-.42-.32-.429.1-.1.44.346.58.563.363.563-.055 0-.264-.208-.463-.463zm182.142-.727c.002-.728.054-.994.115-.592.06.402.059.997-.004 1.323-.063.325-.113-.004-.111-.731zm27.198-1.345c.012-.309.075-.371.16-.16.076.19.067.419-.021.507-.088.088-.15-.068-.14-.347zm-114.52-1.896a228.34 228.34 0 017.806 0c2.146.045.39.08-3.903.08s-6.05-.035-3.903-.08zm19.315.008c.4-.06 1.055-.06 1.455 0 .4.061.073.11-.727.11-.8 0-1.128-.049-.728-.11zm11.245.003a3.77 3.77 0 011.19 0c.328.063.06.115-.595.115s-.923-.052-.595-.115zm15.742-.003c.4-.06 1.055-.06 1.456 0 .4.061.072.11-.728.11-.8 0-1.128-.049-.728-.11zm10.985-.002c.476-.059 1.19-.057 1.588.003.397.06.008.108-.865.107-.873-.001-1.198-.05-.723-.11zm13.754-.006a403.61 403.61 0 0110.186 0c2.802.043.51.078-5.093.078-5.602 0-7.894-.035-5.093-.078zm22.093.016c.254-.067.671-.067.926 0 .254.066.046.12-.463.12-.51 0-.718-.054-.463-.12zm17.462 0c.255-.067.672-.067.926 0 .255.066.047.12-.463.12s-.717-.054-.463-.12zM58.647.348c.191-.076.42-.067.507.021.088.088-.068.15-.347.14-.308-.013-.37-.076-.16-.16zm2.91 0c.192-.076.42-.067.508.021.088.088-.069.15-.348.14-.308-.013-.37-.076-.16-.16z" fill="#b9b9b9"></path><path d="M8.782 31.725c-1.894-.316-4.069-1.17-5.354-2.101-3.69-2.674-4.49-7.876-1.963-12.761.394-.762.683-1.504.642-1.65-.041-.145.014-.174.124-.065.11.11.42-.001.69-.246.41-.37.38-.2-.177 1.016-.367.803-.866 2.261-1.107 3.24-.375 1.516-.392 2.037-.12 3.516.632 3.427 2.32 5.573 4.868 6.184 4.205 1.009 10.67-1.02 17.229-5.405 2.487-1.663 2.574-1.698 2.791-1.128.123.324.623 1.161 1.11 1.86 1.126 1.617 1.86 2.844 1.76 2.943-.044.043-1.063.568-2.265 1.167-5.93 2.958-13.044 4.296-18.228 3.43zM155.8 28.74c0-.055.208-.264.463-.463.42-.33.429-.32.1.1-.346.44-.563.58-.563.363zm21.662-.363c-.33-.42-.32-.43.1-.1.44.345.58.563.363.563-.055 0-.263-.209-.463-.463zm34.43.363c0-.055.208-.264.463-.463.42-.33.429-.32.1.1-.346.44-.564.58-.564.363zM68.75 21.828c.342-.364.68-.661.754-.661.072 0-.148.297-.49.661-.341.364-.68.662-.753.662-.073 0 .147-.298.489-.662zm-37.901-8.78c-3.39-4.06-6.453-6.423-8.335-6.43-.327-.002-.595-.137-.595-.301 0-.164.617-1.652 1.372-3.307L24.664 0h1.417c3.284 0 8.616 1.835 10.975 3.778l.716.59-2.39 5.158c-1.314 2.837-2.483 5.255-2.597 5.373-.115.118-.986-.715-1.935-1.852zm15.446.863c.401-.435.361-.586-.583-2.202-.558-.955-1.258-2.016-1.556-2.359-.298-.342-.542-.726-.542-.853 0-.584-.704-.804-1.281-.4-.321.225-.699.37-.839.323-.412-.139 4.503-3.309 7.463-4.813C53.824 1.135 58.678-.027 61.989.49c2.118.33 4.114 1.188 5.06 2.176.915.955.767.988-.43.095-.767-.573-2.449-1.437-2.795-1.437-.055 0-.1.893-.1 1.984 0 1.77-.055 1.985-.5 1.985-.985 0-5.165 1.36-7.275 2.367-2.469 1.178-6.505 3.758-8.63 5.516-.8.662-1.26.993-1.023.736zm-18.704-3.394l-.778-.86.86.777c.802.725.982.943.777.943-.045 0-.432-.387-.86-.86zM7.897 8.102c0-.055.208-.263.463-.463.42-.329.429-.32.1.1-.346.44-.563.58-.563.363zm115.06-5.92c-.33-.419-.32-.428.1-.1.44.347.58.564.363.564-.055 0-.264-.209-.463-.463zm100.575.1c0-.056.209-.264.463-.464.42-.329.43-.32.1.1-.346.441-.563.581-.563.363z" fill="#a3a3a3"></path><path d="M118.29 28.843c-.33-.14-.716-.562-.86-.94-.336-.885-.344-15.742-.009-16.625.58-1.523 5.307-1.643 6.104-.155.153.285.259 3.792.259 8.542 0 9.682.135 9.253-2.948 9.363-1.07.038-2.216-.045-2.546-.185zm10.786.073c-.218-.08-.605-.327-.86-.549-.429-.374-.463-1.342-.463-13.194 0-12.439.015-12.806.53-13.32.506-.508.881-.53 8.867-.53h8.338l.524.86c.913 1.497.512 4.34-.676 4.796-.236.09-2.86.165-5.83.165h-5.403V12.17h4.78c2.629 0 4.998.116 5.264.259 1.089.583 1.401 3.292.542 4.702l-.524.86h-10.062V28.337l-.918.384c-.893.373-3.312.488-4.11.195zm22.232-.093c-.36-.15-.744-.417-.855-.592-.111-.175-.204-6.115-.206-13.2l-.004-12.884.588-.412c.813-.57 4.36-.57 5.174 0l.588.412v12.908c0 12.725-.008 12.916-.549 13.405-.641.58-3.667.813-4.736.363zm11.113 0c-.36-.15-.745-.417-.856-.592-.111-.175-.204-6.115-.206-13.2l-.004-12.884.588-.412c.887-.621 4.54-.575 5.18.065.263.262 2.479 3.447 4.924 7.078 2.446 3.63 4.613 6.774 4.815 6.988.315.331.368-.633.368-6.666 0-8.344-.191-7.877 3.234-7.877 3.39 0 3.116-1.217 3.116 13.85 0 15.052.29 13.799-3.197 13.799-1.875 0-2.146-.066-2.72-.662-.35-.363-2.628-3.608-5.06-7.21-2.434-3.603-4.53-6.617-4.66-6.697-.138-.085-.238 2.738-.238 6.707 0 6.599-.02 6.872-.548 7.35-.642.58-3.667.813-4.736.363zm26.799.028c-.318-.135-.705-.483-.86-.773-.188-.351-.282-4.713-.282-13.112 0-14.855-.283-13.643 3.187-13.643 1.907 0 2.196.067 2.778.65l.65.649v12.55c0 14.814.227 13.743-2.948 13.856-1.071.038-2.207-.041-2.525-.177zm18.18-.028c-.36-.15-.745-.417-.856-.592-.11-.175-.203-4.872-.206-10.438l-.004-10.12h-3.44c-4.366 0-4.497-.09-4.497-3.116 0-1.434.125-2.236.412-2.646l.412-.588H219.798l.412.588c.8 1.141.468 4.921-.488 5.56-.16.106-1.809.196-3.664.198l-3.374.004v10.145c0 9.93-.011 10.156-.548 10.642-.642.58-3.667.813-4.736.364zm26.45.107c-1.295-.521-1.322-.65-1.322-6.3v-5.335l-4.409-6.862c-2.424-3.774-4.46-7.112-4.521-7.419-.077-.381.124-.744.638-1.148.67-.527.995-.581 3.026-.5 1.405.055 2.44.227 2.707.448.238.197 1.595 2.188 3.017 4.424 1.421 2.237 2.656 4.07 2.743 4.073.088.004 1.365-1.877 2.84-4.18 1.73-2.706 2.92-4.299 3.359-4.499.9-.41 4.317-.389 5.152.032 1.356.682 1.109 1.266-3.69 8.719l-4.512 7.008v5.287c0 6.308.032 6.236-2.864 6.345-.971.037-1.945-.005-2.163-.093zm-148.423-.369c-.36-.152-.745-.42-.856-.594-.11-.175-.203-6.104-.206-13.175C84.36-.414 84.017.957 87.838.938c2.232-.011 2.428.032 2.962.654.315.366 2.18 3.255 4.145 6.42 3.177 5.12 3.61 5.703 3.918 5.287.19-.256 1.01-1.531 1.822-2.832 1.581-2.534 5.622-8.298 6.274-8.95.922-.921 5.054-.853 6.006.1.477.476.5 1.094.5 13.085 0 7.703-.1 12.773-.259 13.069-.752 1.405-5.344 1.405-6.096 0-.15-.281-.261-3.512-.264-7.711-.005-8.394.363-8.197-3.118-1.671-1.164 2.182-2.424 4.286-2.8 4.674-.946.98-2.046 1.172-3.272.572-.828-.404-1.27-.985-2.68-3.527a423.418 423.418 0 00-2.91-5.159l-1.222-2.117-.07 7.437c-.083 8.726.059 8.313-2.9 8.473-.986.053-2.087-.028-2.447-.18zM29.152 26.67c-.121-.189-.34-.539-.485-.778-.146-.24-.701-1.073-1.234-1.853-.533-.779-1.01-1.598-1.058-1.82-.05-.223.444-.868 1.101-1.44.655-.569 2.044-1.863 3.087-2.874l1.896-1.84-2.468-2.939C25.997 8.37 24.224 7.3 19.625 6.863c-1.91-.181-2.887-.183-2.946-.005-.048.146-.437.195-.863.11-.457-.091-.776-.043-.776.118 0 .15-.238.21-.529.134-.29-.076-.529-.009-.529.15 0 .157-.178.218-.397.134-.218-.084-.397-.024-.397.132 0 .157-.178.216-.396.133-.219-.084-.397-.046-.397.084s-.266.256-.592.281c-.325.024-.633.17-.684.323-.05.152-.201.21-.334.128-.134-.082-.242-.016-.242.146 0 .163-.12.222-.265.133-.146-.09-.265-.03-.265.132s-.119.222-.264.132c-.146-.09-.265-.03-.265.132 0 .163-.12.222-.266.132-.147-.091-.338.02-.425.247-.087.227-.264.347-.394.266-.13-.08-.553.189-.941.597-.388.409-.619.564-.511.346.107-.218-.125-.04-.515.397-.39.436-.618.615-.506.397.112-.219-.107-.114-.486.231l-.69.628.044-.594c.057-.747 3.786-4.537 6.364-6.467C14.74 2.758 18.48 1.084 22.446.387c1.09-.192 2.017-.313 2.06-.27.044.044-.52 1.387-1.253 2.985-.733 1.597-1.333 3.041-1.333 3.208 0 .168.268.306.595.307 1.882.008 4.944 2.37 8.335 6.43.95 1.137 1.82 1.97 1.933 1.852.114-.118 1.25-2.477 2.526-5.242 1.274-2.765 2.364-5.085 2.42-5.156.122-.152 2.324 2.169 3.143 3.311.56.781.57.784 1.347.334.594-.344.856-.379 1.09-.145.168.169.306.401.306.517 0 .115.244.49.542.832.298.343.998 1.403 1.555 2.356l1.012 1.733-.678.679-.678.678.691.971c.514.722.636 1.116.474 1.532-.673 1.727-3.184 6.778-3.37 6.778-.588 0-4.41-2.528-6.258-4.14-1.145-.997-2.31-1.945-2.59-2.107-.28-.162-.802-.57-1.16-.906l-.652-.612-.651.612c-.722.677-.674.869.575 2.325.405.473.94 1.128 1.19 1.455.248.327.754.97 1.125 1.429l.674.833-1.787 1.312c-2.767 2.03-4.211 2.8-4.477 2.39zm7.187-4.709c.264-.29.539-.529.612-.529.072 0-.084.238-.347.53-.263.29-.538.529-.611.529-.073 0 .083-.239.346-.53zm30.824-3.307c.342-.364.681-.661.754-.661.073 0-.147.297-.489.661-.342.364-.68.662-.754.662-.073 0 .148-.298.49-.662zm-64.918-3.44c.084-.218.265-.396.404-.396s.19-.1.116-.22c-.075-.122.039-.221.253-.221.29 0 .24.16-.19.617-.677.72-.792.764-.583.22zm1.683-1.82c0-.054.208-.262.463-.462.42-.33.429-.32.1.1-.346.44-.563.58-.563.363zm-.265-.528c0-.055.209-.264.463-.463.42-.33.43-.32.1.1-.345.44-.563.58-.563.363zm114.38-5.132c-1.2-.942-1.524-3.524-.628-4.994 1.03-1.69 4.267-1.908 5.633-.38.647.724.736 1.035.736 2.56 0 1.566-.076 1.812-.773 2.51-.706.705-.932.773-2.58.767-1.304-.004-1.968-.133-2.388-.463zM67.762 5.91c-.326-.227-1.368-.475-2.315-.551l-1.723-.139V3.271c0-1.071.054-1.948.12-1.948.692 0 3.632 1.882 4.546 2.91.481.542.515.678.184.752-.271.061-.364.301-.283.728.067.35.109.63.092.623a28.1 28.1 0 01-.621-.427zm1.253.192c0-.137.118-.322.262-.41.15-.093.194.013.104.248-.176.459-.366.543-.366.162z" fill="#8c8c8c"></path><path d="M50.18 26.967a24.14 24.14 0 01-11.029-4.62l-1.78-1.339-.912.872c-.502.48-.994.872-1.093.873-.098 0-.428-.326-.732-.726-1.14-1.502-1.489-1.94-2.207-2.778-1.25-1.456-1.297-1.648-.575-2.325l.651-.612.652.612c.358.337.88.744 1.16.906.279.162 1.488 1.144 2.688 2.184 2.203 1.91 5.87 4.226 6.284 3.97.124-.076.926-1.664 1.784-3.528.857-1.865 1.589-3.434 1.626-3.488.038-.054.7.457 1.47 1.136 1.404 1.236 5.178 3.327 6.003 3.327.354 0 .196.502-.812 2.58-.688 1.419-1.257 2.728-1.264 2.91-.007.182-.101.317-.21.299-.11-.018-.876-.132-1.703-.253zm5.292.104c.191-.076.42-.067.507.021.088.088-.068.15-.347.14-.308-.013-.37-.076-.16-.16zm1.836-5.04c.618-.055 1.63-.055 2.249 0 .618.056.112.102-1.125.102s-1.743-.046-1.124-.102zm-2.117-.246c.182-.073.48-.073.661 0 .182.074.034.134-.33.134s-.513-.06-.331-.134zm5.82 0c.183-.073.48-.073.662 0 .182.074.033.134-.33.134-.364 0-.513-.06-.331-.134zm2.455-.703c3.001-1.235 4.678-2.794 5.954-5.533.357-.767.65-1.244.651-1.06.006.71-1.175 2.784-2.294 4.029-1.14 1.269-4.372 3.186-5.345 3.172-.236-.003.23-.277 1.034-.608zm-60.422-6.95c.74-1.24 1.986-2.71 1.774-2.093l-.181.529.65-.53c.358-.29.288-.18-.156.244-.443.426-1.204 1.2-1.69 1.72-.863.925-.873.928-.397.13zm67.072-.638c0-.364.06-.513.133-.331.073.182.073.48 0 .661-.073.182-.133.034-.133-.33zM6.309 11.277c0-.055.209-.263.463-.463.42-.329.43-.32.1.1-.345.44-.563.58-.563.363zm1.059-.807c0-.073.238-.26.529-.416.29-.156.529-.224.529-.15 0 .072-.238.259-.53.415-.29.156-.528.223-.528.15zm62.727-1.1c.012-.308.075-.37.16-.16.076.192.067.42-.021.508-.088.088-.15-.068-.14-.347zM14.197 7.229c.191-.077.42-.067.507.02.088.088-.068.15-.347.14-.308-.013-.37-.076-.16-.16zm54.733-.565c-.785-.819-.933-1.636-.296-1.636.227 0 .34.12.25.265-.09.145-.042.264.108.264s.203.179.12.397c-.085.218-.014.397.155.397.17 0 .242.109.16.242-.083.133 0 .295.182.36.183.066.264.194.181.285-.083.091-.47-.167-.86-.574zM15.24 6.97c.182-.074.48-.074.661 0 .182.073.033.133-.33.133-.364 0-.513-.06-.331-.133zm1.72-.272c.254-.067.671-.067.926 0 .254.066.046.12-.463.12-.51 0-.718-.054-.463-.12z" fill="#767676"></path><path d="M52.082 27.044c0-.156.535-1.436 1.189-2.845.987-2.127 1.267-2.53 1.654-2.374.902.363 4.73.465 6.136.164.78-.167 1.45-.272 1.488-.233.04.04-.425 1.084-1.03 2.321l-1.102 2.249-1.588.318c-2.416.485-6.747.741-6.747.4zm15.346-8.126c.342-.364.68-.662.754-.662.072 0-.148.298-.49.662-.341.364-.68.661-.753.661-.073 0 .147-.297.489-.661zm3-7.54c0-1.092.046-1.539.103-.993.057.546.057 1.439 0 1.984-.057.546-.104.1-.104-.992zm-.333-2.801c.012-.308.075-.371.16-.16.076.191.067.42-.021.507-.088.088-.15-.068-.14-.347zm-.66-2.133c-.253-.656.025-.746.362-.117.163.304.185.552.05.552s-.32-.195-.413-.435z" fill="#606060"></path><path d="M61.558 24.09c.974-2.1.977-2.103 2.944-3.086 3.79-1.892 5.792-4.857 6.017-8.91.08-1.445-.011-2.66-.273-3.627-.216-.8-.345-1.503-.286-1.562.235-.236 1.518 3.137 1.902 5.001 1.217 5.905-2.59 11.349-9.628 13.77-.827.285-1.537.518-1.577.518-.04 0 .365-.947.901-2.103z" fill="#494949"></path>
</symbol>

<symbol id="neosurf" viewBox="0 0 64.144 14.187" >
<path d="M8.593 14.134c-.603-.162-1.048-.554-1.55-1.366-.11-.177-.955-1.778-1.88-3.557a293.264 293.264 0 00-1.71-3.268c-.018-.02-.03 1.701-.03 3.982v4.016H0l.01-6.245.009-6.245.086-.214C.22.951.332.78.537.573c.236-.235.464-.373.8-.482.247-.08.346-.092.731-.09.964.002 1.601.325 2.079 1.052.105.16.877 1.654 1.715 3.32a237.963 237.963 0 001.556 3.063c.018.02.03-1.505.03-3.59V.222H10.87v6.102c0 6.712.011 6.354-.22 6.826-.14.286-.53.693-.798.835-.374.2-.859.256-1.258.15zm8.067.007c-2.048-.34-3.677-1.916-4.122-3.988-.111-.519-.111-1.42 0-1.94a5.009 5.009 0 011.32-2.476c.451-.47.85-.764 1.413-1.043a4.66 4.66 0 012.743-.477c1.577.192 2.842 1.065 3.809 2.629.11.178.2.344.199.369-.001.025-1.062.772-2.357 1.662-1.788 1.228-2.362 1.605-2.385 1.568-.016-.027-.284-.45-.596-.94-.312-.49-.562-.901-.555-.913.007-.012.574-.39 1.26-.838.686-.448 1.248-.828 1.248-.844.001-.042-.341-.191-.585-.254-.317-.082-.86-.073-1.132.019-1.221.41-1.813 2.208-1.157 3.512.664 1.317 1.994 1.623 3.276.754.473-.32.97-.885 1.226-1.393.067-.134.137-.239.154-.233.209.075 2.209 1.129 2.21 1.164 0 .09-.36.769-.589 1.11-.874 1.3-2.112 2.158-3.598 2.496-.417.095-1.37.125-1.782.056zm11.118.027c-1.154-.175-2.064-.633-2.888-1.455a4.998 4.998 0 01-1.388-2.513c-.09-.409-.11-1.328-.04-1.772.29-1.83 1.634-3.42 3.38-3.998.584-.193.812-.228 1.47-.23.84-.004 1.362.114 2.103.474 1.38.67 2.426 2.023 2.745 3.548.08.383.108 1.167.055 1.568a5.106 5.106 0 01-3.943 4.312c-.241.055-1.27.1-1.494.066zm.954-3.023c.678-.144 1.265-.738 1.433-1.448.343-1.456-.842-2.776-2.233-2.487-.705.146-1.329.819-1.455 1.57-.057.335-.025.802.073 1.089.165.48.545.922.977 1.135.395.194.756.236 1.205.141zm16.97 3.022c-1.867-.235-3.056-1.39-3.424-3.326-.058-.306-.065-.632-.077-3.376l-.012-3.038h3.033v2.735c.001 1.504.017 2.851.035 2.993.064.492.346.877.725.99.678.2 1.267-.214 1.377-.97.02-.142.035-1.377.036-2.995V4.427h3.033l-.013 3.038c-.014 3.347-.013 3.318-.245 4.044a3.738 3.738 0 01-1.027 1.658c-.729.69-1.689 1.031-2.87 1.018a9.392 9.392 0 01-.57-.018zm-11.519-1.551l.01-1.33 1.639-.017c1.223-.014 1.659-.03 1.717-.063.125-.071.189-.191.189-.352 0-.117-.022-.172-.1-.25-.127-.127-.178-.153-1.1-.56-.835-.37-1.136-.55-1.48-.891-.57-.566-.809-1.238-.766-2.16.033-.69.249-1.22.67-1.642.425-.424.998-.721 1.653-.857.288-.06.503-.066 2.058-.067h1.738v2.565h-1.34c-1.139 0-1.358.008-1.457.056-.16.076-.262.193-.29.33-.041.205.169.358 1.075.784.878.414 1.257.62 1.559.852.484.372.774.747.92 1.192.075.23.085.325.084.813 0 .461-.014.603-.082.855-.272 1.013-.938 1.655-2.024 1.951l-.352.096-2.165.012-2.165.012zm17.738-3.432V4.427h2.744v.79c0 .436.013.777.03.758.016-.019.065-.122.108-.23.123-.31.393-.676.635-.86.348-.264.878-.414 1.588-.448l.418-.02v2.885l-.418.022c-1.238.064-1.758.378-1.9 1.147-.025.137-.046 1.16-.058 2.842l-.019 2.628h-3.128zm6.637-.668l.01-5.426.081-.3c.373-1.396 1.482-2.317 3.047-2.53.154-.021.767-.038 1.364-.038h1.084l-.009 1.434-.009 1.434-.926.018c-.772.015-.944.028-1.033.077-.26.143-.408.433-.437.854l-.02.28 1.209.009 1.207.009.01 1.434.008 1.434H61.72V13.94h-3.173z" fill="#8c8c8c"></path>
</symbol>

<symbol id="netent" viewBox="0 0 612 217" >
<path class="s0" d="M320 42.3h77.2v24.9h-59.4v27.5h50.8v24.9h-50.8V148h59.4v24.7H320v40.8h-6.1V1.7h6.1zm-240.2 80V42.4h26v130.3H82.3l-31-48.9L32 92.6v80.1H6.1V42.4h23.3l.3.4 28.1 44 21.9 35.5zm40.5-80h85.4v24.9h-59.4v27.5h50.8v24.9h-50.8V148h59.4v24.7h-85.4zm95.9.1h85.6v25.1h-29.7v105.3h-26V67.5h-29.9zm267.7.2h26v130.2h-23.5l-31-48.9-19.3-31.2v80.1h-25.8V42.5h23.3l.3.5L462 87l21.9 35.5zm122.2 0v25.1h-29.7V173h-26V67.7h-29.9V42.6z"></path>
</symbol>

<symbol id="e-teen" viewBox="0 0 81.086 81.02">
<path d="M35.133 80.824c-13.24-1.838-24.952-10.235-30.805-22.088-5.765-11.673-5.771-24.477-.018-36.248 3.477-7.112 9.754-13.701 16.618-17.442 15.18-8.273 33.554-6.242 46.428 5.133 11.29 9.975 16.129 25.325 12.59 39.94-1.954 8.074-6.458 15.517-12.657 20.921-5.352 4.665-11.474 7.765-18.276 9.253-2.984.653-10.835.953-13.88.53zm10.32-5.671c9.97-1.515 18.832-7.196 24.281-15.568 4.132-6.349 5.88-12.872 5.534-20.656-.273-6.162-1.725-11.044-4.81-16.18C65.2 13.993 57.73 8.717 47.173 6.304c-3.275-.749-10.21-.675-13.857.148-5.087 1.147-8.59 2.67-12.734 5.536C12.98 17.246 7.53 25.947 6.171 34.994c-.816 5.43-.3 12.035 1.308 16.73 5.43 15.862 21.7 25.9 37.973 23.429zm-9.098-23.178c-.565-.14-1.723-.627-2.574-1.08-2.365-1.261-3.41-2.931-3.41-5.449 0-1.987.794-3.6 2.291-4.655 1.153-.813 1.153-.813.256-1.753-1.605-1.68-2.006-3.242-1.383-5.386.48-1.65 1.813-3.059 3.73-3.94 1.163-.535 1.724-.607 4.63-.596 3.628.013 4.785.34 6.589 1.857 2.45 2.062 2.503 6.432.102 8.304-.525.41-.634.617-.38.721.808.332 2.271 1.87 2.721 2.861 1.526 3.358-.328 7.127-4.248 8.637-1.68.647-6.535.927-8.324.48zm5.31-3.972c2.478-.939 2.919-3.991.765-5.304-.998-.61-3.715-.676-5.035-.125-1.082.452-1.497 1.155-1.516 2.566-.032 2.308 3.126 3.871 5.786 2.863zm.694-10.794c.884-.885.814-2.79-.133-3.605-.992-.853-2.51-1.064-3.837-.534-1.497.6-2.122 2.232-1.383 3.613.722 1.347 4.19 1.688 5.353.526zm-22.042 6.755c0-4.269-.067-7.828-.149-7.91-.081-.081-.766.017-1.52.218-.756.2-1.706.367-2.113.369-.738.003-.738.003-.661-2.02.077-2.022.077-2.022 1.2-2.352 1.232-.363 3.422-1.68 4.171-2.508.393-.434.816-.526 2.42-.526 1.943 0 1.943 0 1.943 11.245s0 11.245-2.645 11.245c-2.646 0-2.646 0-2.646-7.761zm37.218 3.616c-.097-.097-.177-1.288-.177-2.646 0-2.47 0-2.47-2.38-2.47-2.382 0-2.382 0-2.382-1.322 0-1.323 0-1.323 2.371-1.323 2.372 0 2.372 0 2.448-2.448.076-2.447.076-2.447 1.455-2.527 1.379-.08 1.379-.08 1.455 2.382.076 2.46.076 2.46 2.523 2.536 2.448.077 2.448.077 2.448 1.38s0 1.303-2.448 1.379c-2.447.076-2.447.076-2.523 2.655-.075 2.58-.075 2.58-1.345 2.58-.698 0-1.348-.08-1.445-.176z"></path>
</symbol>
</defs>
</svg>